<svg id="Layer_1" data-name="Layer 1" xmlns="http://www.w3.org/2000/svg" viewBox="0 0 148.12 109.32"><defs><style>.cls-1{fill:#fff;}</style></defs><path class="cls-1" d="M23.06,56.13a2.88,2.88,0,0,0-2-.69,1.87,1.87,0,0,0-2.1,1.69c0,1.24,1.06,1.58,2.16,2.11,1.41.7,2.85,1.19,2.85,3.13,0,1.4-1.15,2.58-3.05,2.58a4.45,4.45,0,0,1-3.2-1.3l.69-.6a3.48,3.48,0,0,0,2.51,1c1.25,0,2-.74,2-1.66,0-1.32-1.21-1.77-2.27-2.29-1.34-.66-2.74-1.2-2.74-2.95,0-1.47,1.28-2.61,3.14-2.61a3.89,3.89,0,0,1,2.7,1Z"/><path class="cls-1" d="M30.84,65A5.22,5.22,0,1,1,36,59.73,5.06,5.06,0,0,1,30.84,65Zm0-9.51A4.3,4.3,0,1,0,35,59.73,4.1,4.1,0,0,0,30.84,55.44Z"/><path class="cls-1" d="M39.49,54.69V61c0,1.28.58,3.07,2.74,3.07S45,62.24,45,61V54.69h1V61c0,1.67-.75,4-3.75,4s-3.74-2.32-3.74-4V54.69Z"/><path class="cls-1" d="M48,54.69h7.77v.9H52.4v9.19h-1V55.59H48Z"/><path class="cls-1" d="M57.87,64.78V54.69h1V59.1h5.53V54.69h1V64.78h-1V60H58.88v4.79Z"/><path class="cls-1" d="M79.73,63.88v.9H73.31V54.69h6.25v.9H74.32v3.5h4.89V60H74.32v3.9Z"/><path class="cls-1" d="M82.38,64.78h-1L85.7,54.69h1.06l4.32,10.09H90L88.88,62.1H83.54Zm3.84-8.88-2.29,5.3h4.56l-2.25-5.3Z"/><path class="cls-1" d="M97.87,56.13a2.88,2.88,0,0,0-2-.69,1.87,1.87,0,0,0-2.1,1.69c0,1.24,1.06,1.58,2.16,2.11,1.41.7,2.85,1.19,2.85,3.13,0,1.4-1.15,2.58-3,2.58a4.45,4.45,0,0,1-3.2-1.3l.69-.6a3.46,3.46,0,0,0,2.51,1c1.25,0,2-.74,2-1.66,0-1.32-1.21-1.77-2.27-2.29-1.34-.66-2.74-1.2-2.74-2.95,0-1.47,1.28-2.61,3.14-2.61a3.85,3.85,0,0,1,2.69,1Z"/><path class="cls-1" d="M100.35,54.69h7.78v.9h-3.39v9.19h-1V55.59h-3.38Z"/><path class="cls-1" d="M116.64,63.88v.9h-6.43V54.69h6.26v.9h-5.25v3.5h4.9V60h-4.9v3.9Z"/><path class="cls-1" d="M121.88,60.07H120v4.71h-1V54.69h2.69c2.25,0,3.58.84,3.58,2.67A2.5,2.5,0,0,1,122.94,60l2.86,4.83h-1.13Zm-1.93-.9h1.68c1.65,0,2.54-.63,2.54-1.81s-.94-1.77-2.54-1.77H120Z"/><path class="cls-1" d="M135.44,63.62V54.69h1V64.78h-1.37l-6-8.92h0v8.92h-1V54.69h1.36l6,8.93Z"/><path class="cls-1" d="M27.46,73.74h0L24,82.06H23l-3.43-8.32h0v8.32h-1V72h1.33l3.66,8.85h0L27.14,72h1.32V82.06h-1Z"/><path class="cls-1" d="M38.14,81.16v.9H31.72V72H38v.9H32.73v3.5h4.89v.89H32.73v3.9Z"/><path class="cls-1" d="M40.44,72h1v9.19h4.73v.9H40.44Z"/><path class="cls-1" d="M52.7,76.63a2.75,2.75,0,0,1,2.41,2.77c0,1.91-1.89,2.66-4,2.66H48.28V72h2.59c1.93,0,3.53.67,3.53,2.39a2.2,2.2,0,0,1-1.7,2.24Zm-3.41-.35h2a1.92,1.92,0,0,0,2.07-1.92c0-1.06-1.12-1.49-2.49-1.49H49.29Zm0,4.88h1.77c1.61,0,3-.52,3-1.76,0-1.45-1.07-2.23-2.75-2.23h-2Z"/><path class="cls-1" d="M62.08,82.23A5.22,5.22,0,1,1,67.26,77,5.06,5.06,0,0,1,62.08,82.23Zm0-9.51A4.3,4.3,0,1,0,66.22,77,4.1,4.1,0,0,0,62.08,72.72Z"/><path class="cls-1" d="M70.74,72v6.27c0,1.28.57,3.07,2.74,3.07s2.73-1.79,2.73-3.07V72h1v6.27c0,1.67-.75,4-3.74,4s-3.75-2.32-3.75-4V72Z"/><path class="cls-1" d="M83.32,77.35H81.39v4.71h-1V72h2.69c2.25,0,3.57.84,3.57,2.67a2.49,2.49,0,0,1-2.26,2.59l2.85,4.83H86.11Zm-1.93-.9h1.68c1.64,0,2.54-.63,2.54-1.81s-.94-1.77-2.54-1.77H81.39Z"/><path class="cls-1" d="M96.88,80.9V72h1V82.06H96.52l-6-8.92h0v8.92h-1V72h1.37l6,8.93Z"/><path class="cls-1" d="M107.56,81.16v.9h-6.42V72h6.25v.9h-5.25v3.5H107v.89h-4.9v3.9Z"/><path class="cls-1" d="M22,14c-4.82,0-9.26,1.35-12,4.7H9.87C8.52,16,5,14.79,1.83,14.79A8.07,8.07,0,0,0-1,15.24l.39,8.36A3,3,0,0,1,0,23.54c1.41,0,2.83,1.22,2.83,4.5V60a.57.57,0,0,0,0,.13,4.89,4.89,0,0,0,9.77,0h0V43.8h.13a13.18,13.18,0,0,0,6.63,3.54,11.78,11.78,0,0,0,3.34.32c8-.39,14.47-7.46,14.47-16.79C37.2,21.22,30.32,14,22,14ZM19.39,39a8.36,8.36,0,0,1-6.76-3.61V26.24a8.15,8.15,0,0,1,6.76-3.47,8.11,8.11,0,0,1,0,16.21Z"/><path class="cls-1" d="M62.08,14.15a16.25,16.25,0,0,0-3.93.26,11.71,11.71,0,0,0-6.62,4H51.4V0H41.62V47H51.4V26.3a7.16,7.16,0,0,1,6.43-3.53c4,0,6.05,3.08,6.05,7.78V47h9.77V31.51a35.29,35.29,0,0,0-.38-5.4C72.3,19.1,68.57,14.54,62.08,14.15Z"/><path class="cls-1" d="M98,14c-4.05,0-8.1,1.8-9.84,5.6h-.13l-.19-4.83H78.81V47h9.78V26.3A7.16,7.16,0,0,1,95,22.77c4,0,6,3.08,6,7.78V47h9.77V30.55C110.84,20.65,106.53,14,98,14Z"/><path class="cls-1" d="M5.16,101.13H6.49l2.16,8h-1L7,107H4.48l-.6,2.2h-1Zm-.48,5H6.84l-1-3.88h0Z"/><path class="cls-1" d="M9.38,103.14h.9v.7h0a1.62,1.62,0,0,1,1.47-.86c1.58,0,1.58,1.2,1.58,1.91v4.27h-.94V105c0-.46,0-1.21-.89-1.21A1.15,1.15,0,0,0,10.33,105v4.16H9.38Z"/><path class="cls-1" d="M18.89,101.13h1.33l2.16,8h-1l-.57-2.2H18.21l-.6,2.2h-1Zm-.48,5h2.16l-1-3.88h0Z"/><path class="cls-1" d="M27,109.16h-.9v-.71h0a1.58,1.58,0,0,1-1.46.87c-1.58,0-1.58-1.2-1.58-1.91v-4.27h.94v4.16c0,.46,0,1.21.89,1.21A1.16,1.16,0,0,0,26,107.3v-4.16H27Z"/><path class="cls-1" d="M30.74,104.9c0-.76-.2-1.18-.89-1.18a.87.87,0,0,0-1,.92c0,.71.74.84,1.49,1.09s1.47.51,1.47,1.7a1.77,1.77,0,0,1-1.95,1.89,1.86,1.86,0,0,1-2.07-2.14h1c0,.73.2,1.4,1.12,1.4a.94.94,0,0,0,1-1c0-.81-.74-1-1.47-1.23s-1.48-.46-1.48-1.71S28.8,103,29.85,103c1.75,0,1.82,1.21,1.83,1.92Z"/><path class="cls-1" d="M33.08,101.38h1v1.76h1v.74H34v3.87c0,.48.12.67.62.67a3.16,3.16,0,0,0,.41,0v.77a3.32,3.32,0,0,1-.76.07c-1,0-1.22-.4-1.22-1.19v-4.16h-.87v-.74h.87Z"/><path class="cls-1" d="M35.75,103.14h.94V104h0c.27-.57.63-1,1.31-1a.86.86,0,0,1,.41.07V104a2.47,2.47,0,0,0-.5,0,1.34,1.34,0,0,0-1.24,1.43v3.81h-.94Z"/><path class="cls-1" d="M39,105c0-1.38.59-2,2-2,1.83,0,1.83,1.1,1.83,1.73v3.36c0,.25,0,.49.29.49a.37.37,0,0,0,.23-.06v.67a2.62,2.62,0,0,1-.55.06c-.36,0-.81,0-.86-.78h0a1.72,1.72,0,0,1-1.45.87c-1.13,0-1.64-.67-1.64-1.75A1.57,1.57,0,0,1,40,105.9l1.27-.38c.69-.21.69-.41.69-.91s-.34-.89-1-.89a1,1,0,0,0-1,1.18V105Zm2.91.92c-.34.37-1.18.45-1.6.71a1,1,0,0,0-.46,1c0,.61.21,1,.85,1a1.22,1.22,0,0,0,1.21-1.15Z"/><path class="cls-1" d="M44.14,101.13h.94v8h-.94Z"/><path class="cls-1" d="M46.27,101.13h.95v1.08h-.95Zm0,2h.95v6h-.95Z"/><path class="cls-1" d="M48.28,105c0-1.38.58-2,2-2,1.84,0,1.84,1.1,1.84,1.73v3.36c0,.25,0,.49.29.49a.34.34,0,0,0,.22-.06v.67a2.45,2.45,0,0,1-.55.06c-.36,0-.81,0-.85-.78h0a1.72,1.72,0,0,1-1.46.87c-1.12,0-1.64-.67-1.64-1.75a1.56,1.56,0,0,1,1.14-1.67l1.27-.38c.69-.21.69-.41.69-.91s-.34-.89-1-.89a1,1,0,0,0-1,1.18V105Zm2.91.92c-.35.37-1.18.45-1.61.71a1,1,0,0,0-.46,1c0,.61.22,1,.86,1a1.22,1.22,0,0,0,1.21-1.15Z"/><path class="cls-1" d="M53.4,103.14h.9v.7h0a1.61,1.61,0,0,1,1.46-.86c1.59,0,1.59,1.2,1.59,1.91v4.27h-.95V105c0-.46,0-1.21-.89-1.21A1.16,1.16,0,0,0,54.34,105v4.16H53.4Z"/><path class="cls-1" d="M65.15,103.36c-.05-.84-.36-1.57-1.34-1.57-1.37,0-1.55,1.5-1.55,3.36s.18,3.36,1.55,3.36,1.47-1.64,1.47-2.71H63.7V105h2.48v4.17h-.74v-1.09h0a1.79,1.79,0,0,1-1.74,1.25c-2.09,0-2.46-2-2.46-4.17s.37-4.17,2.59-4.17a2.21,2.21,0,0,1,2.37,2.38Z"/><path class="cls-1" d="M69.33,103c1.74,0,2.17,1.47,2.17,3.17s-.44,3.17-2.17,3.17-2.17-1.47-2.17-3.17S67.59,103,69.33,103Zm1.18,3.17c0-1.31-.19-2.43-1.21-2.43s-1.16,1.12-1.16,2.43.2,2.43,1.16,2.43S70.51,107.45,70.51,106.15Z"/><path class="cls-1" d="M71.83,103.14h1L74,108h0l1.12-4.83h1l-1.63,6H73.46Z"/><path class="cls-1" d="M77.53,106.26c0,.92,0,2.32,1.15,2.32.9,0,1-1,1-1.4h.94a2,2,0,0,1-2,2.14c-1.47,0-2.09-1-2.09-3.09,0-1.51.29-3.25,2.14-3.25s2,1.61,2,2.9v.38Zm2.18-.74v-.33c0-.67-.22-1.47-1-1.47-1,0-1.1,1.21-1.1,1.57v.23Z"/><path class="cls-1" d="M81.65,103.14h.95V104h0c.27-.57.63-1,1.31-1a.86.86,0,0,1,.41.07V104a2.47,2.47,0,0,0-.5,0,1.34,1.34,0,0,0-1.24,1.43v3.81h-.95Z"/><path class="cls-1" d="M85,103.14h.9v.7h0A1.61,1.61,0,0,1,87.4,103c1.59,0,1.59,1.2,1.59,1.91v4.27H88V105c0-.46,0-1.21-.88-1.21A1.16,1.16,0,0,0,86,105v4.16H85Z"/><path class="cls-1" d="M90.17,103.14h.9v.7h0a1.62,1.62,0,0,1,1.47-.86,1.18,1.18,0,0,1,1.3,1,1.67,1.67,0,0,1,1.43-1c1.58,0,1.58,1.2,1.58,1.91v4.27h-.94V105c0-.46,0-1.21-.81-1.21A1.1,1.1,0,0,0,94,105v4.16h-1V105c0-.46,0-1.21-.81-1.21A1.1,1.1,0,0,0,91.12,105v4.16h-1Z"/><path class="cls-1" d="M98.88,106.26c0,.92,0,2.32,1.15,2.32.9,0,1-1,1-1.4H102a2,2,0,0,1-2,2.14c-1.48,0-2.09-1-2.09-3.09,0-1.51.29-3.25,2.14-3.25s2,1.61,2,2.9v.38Zm2.18-.74v-.33c0-.67-.22-1.47-1-1.47-1,0-1.1,1.21-1.1,1.57v.23Z"/><path class="cls-1" d="M103,103.14h.9v.7h0a1.59,1.59,0,0,1,1.46-.86c1.58,0,1.58,1.2,1.58,1.91v4.27H106V105c0-.46,0-1.21-.89-1.21A1.15,1.15,0,0,0,104,105v4.16h-1Z"/><path class="cls-1" d="M108.49,101.38h.94v1.76h1v.74h-1v3.87c0,.48.13.67.62.67a3.2,3.2,0,0,0,.42,0v.77a3.36,3.36,0,0,1-.77.07c-1,0-1.21-.4-1.21-1.19v-4.16h-.88v-.74h.88Z"/><path class="cls-1" d="M113.85,101.13h1v8h-1Z"/><path class="cls-1" d="M116.12,103.14h.9v.7h0a1.61,1.61,0,0,1,1.46-.86c1.59,0,1.59,1.2,1.59,1.91v4.27h-1V105c0-.46,0-1.21-.88-1.21a1.16,1.16,0,0,0-1.2,1.21v4.16h-.94Z"/><path class="cls-1" d="M121.25,101.13h1v1.08h-1Zm0,2h1v6h-1Z"/><path class="cls-1" d="M123.77,101.38h.94v1.76h1.05v.74h-1.05v3.87c0,.48.13.67.62.67a3.2,3.2,0,0,0,.42,0v.77a3.36,3.36,0,0,1-.77.07c-1,0-1.21-.4-1.21-1.19v-4.16h-.88v-.74h.88Z"/><path class="cls-1" d="M126.46,101.13h.94v1.08h-.94Zm0,2h.94v6h-.94Z"/><path class="cls-1" d="M128.46,105c0-1.38.59-2,2-2,1.83,0,1.83,1.1,1.83,1.73v3.36c0,.25,0,.49.29.49a.37.37,0,0,0,.23-.06v.67a2.62,2.62,0,0,1-.55.06c-.36,0-.81,0-.86-.78h0a1.72,1.72,0,0,1-1.45.87c-1.13,0-1.64-.67-1.64-1.75a1.57,1.57,0,0,1,1.13-1.67l1.27-.38c.69-.21.69-.41.69-.91s-.34-.89-1-.89a1,1,0,0,0-1,1.18V105Zm2.91.92c-.34.37-1.18.45-1.6.71a1,1,0,0,0-.46,1c0,.61.21,1,.85,1a1.22,1.22,0,0,0,1.21-1.15Z"/><path class="cls-1" d="M133.87,101.38h.94v1.76h1.05v.74h-1.05v3.87c0,.48.13.67.62.67a3.35,3.35,0,0,0,.42,0v.77a3.44,3.44,0,0,1-.77.07c-1,0-1.21-.4-1.21-1.19v-4.16H133v-.74h.88Z"/><path class="cls-1" d="M136.55,101.13h.95v1.08h-.95Zm0,2h.95v6h-.95Z"/><path class="cls-1" d="M138.24,103.14h1L140.4,108h0l1.12-4.83h1l-1.64,6h-1.07Z"/><path class="cls-1" d="M144,106.26c0,.92,0,2.32,1.15,2.32.9,0,1-1,1-1.4h.94a2,2,0,0,1-2,2.14c-1.48,0-2.09-1-2.09-3.09,0-1.51.29-3.25,2.14-3.25s2,1.61,2,2.9v.38Zm2.18-.74v-.33c0-.67-.22-1.47-1-1.47-1,0-1.1,1.21-1.1,1.57v.23Z"/></svg>